<?xml version="1.0" ?><!-- Uploaded to: SVG Repo, www.svgrepo.com, Generator: SVG Repo Mixer Tools -->
<svg width="800px" height="800px" viewBox="0 0 32 32" id="Layer_1" version="1.1" xml:space="preserve" xmlns="http://www.w3.org/2000/svg" xmlns:xlink="http://www.w3.org/1999/xlink"><style type="text/css">
	.st0{fill:#00BBB4;}
	.st1{fill:#1B75BC;}
	.st2{fill:#F15A29;}
</style><path class="st0" d="M23.65625,1H8.34375C6.4970703,1,5,2.4970093,5,4.34375V31l4.1571655-3.9344482L12.7000122,31L16,27.0655518  L19.2999878,31l3.5428467-3.9344482L27,31V4.34375C27,2.4970093,25.5029297,1,23.65625,1z M9.265625,7.0390625h11.1679688  c0.5527344,0,1,0.4477539,1,1s-0.4472656,1-1,1H9.265625c-0.5527344,0-1-0.4477539-1-1S8.7128906,7.0390625,9.265625,7.0390625z   M9.265625,10.5546875h5.5839844c0.5527344,0,1,0.4477539,1,1s-0.4472656,1-1,1H9.265625c-0.5527344,0-1-0.4477539-1-1  S8.7128906,10.5546875,9.265625,10.5546875z M22.734375,23.734375H9.265625c-0.5527344,0-1-0.4477539-1-1s0.4472656-1,1-1h13.46875  c0.5527344,0,1,0.4477539,1,1S23.2871094,23.734375,22.734375,23.734375z M22.734375,20.59375H9.265625  c-0.5527344,0-1-0.4477539-1-1s0.4472656-1,1-1h13.46875c0.5527344,0,1,0.4477539,1,1S23.2871094,20.59375,22.734375,20.59375z   M22.734375,17H9.265625c-0.5527344,0-1-0.4477539-1-1s0.4472656-1,1-1h13.46875c0.5527344,0,1,0.4477539,1,1  S23.2871094,17,22.734375,17z"/></svg>