<?xml version="1.0" encoding="iso-8859-1"?>
<!-- Uploaded to: SVG Repo, www.svgrepo.com, Generator: SVG Repo Mixer Tools -->
<svg version="1.1" id="Layer_1" xmlns="http://www.w3.org/2000/svg" xmlns:xlink="http://www.w3.org/1999/xlink" 
	 viewBox="0 0 512 512" xml:space="preserve">
<rect x="84.809" y="56.055" style="fill:#EF3E25;" width="342.418" height="38.91"/>
<polygon style="fill:#F25B22;" points="489.481,266.173 256.017,452.944 22.553,266.173 84.811,266.173 84.811,94.967 
	427.224,94.967 427.224,266.173 "/>
<polygon style="fill:#F36E24;" points="84.811,94.967 84.811,266.173 22.553,266.173 256.017,452.944 256.017,94.967 "/>
<path d="M435.112,258.659V48.542H76.888v210.117H0l256,204.8l256-204.8L435.112,258.659L435.112,258.659z M92.698,64.352h326.602
	v23.101H92.698V64.352z M398.833,328.945L256,443.212L113.167,328.945h88.359v-15.811H93.403l-48.33-38.665h47.626V103.264h326.602
	V274.47h47.626l-48.33,38.665H310.475v15.811L398.833,328.945L398.833,328.945z"/>
<g>
	<polygon style="fill:#FFFFFF;" points="115.799,258.907 185.962,258.907 185.962,243.096 131.61,243.096 131.61,204.431 
		185.962,204.431 185.962,188.62 131.61,188.62 131.61,149.956 185.962,149.956 185.962,134.145 115.799,134.145 	"/>
	<polygon style="fill:#FFFFFF;" points="269.531,144.936 255.418,137.808 232.462,183.261 208.5,138.331 194.55,145.771 
		223.747,200.515 195.776,255.897 209.889,263.026 232.845,217.573 256.807,262.503 270.757,255.062 241.56,200.318 	"/>
	<rect x="287.007" y="134.265" style="fill:#FFFFFF;" width="15.811" height="124.515"/>
	<polygon style="fill:#FFFFFF;" points="349.263,258.782 365.074,258.782 365.074,149.956 396.079,149.956 396.079,134.145 
		318.257,134.145 318.257,149.956 349.263,149.956 	"/>
	<rect x="248.218" y="313.137" style="fill:#FFFFFF;" width="15.564" height="15.811"/>
</g>
<rect x="279.344" y="313.137" width="15.564" height="15.811"/>
<rect x="217.092" y="313.137" width="15.564" height="15.811"/>
</svg>